<svg width="16" height="15" viewBox="0 0 16 15" fill="none" xmlns="http://www.w3.org/2000/svg">
<path d="M7.52449 0.463525C7.59932 0.233204 7.79966 0.11804 8 0.118034V11.5557C7.89687 11.5557 7.79374 11.5876 7.70612 11.6512L3.9549 14.3766C3.56304 14.6613 3.0358 14.2783 3.18548 13.8176L4.61832 9.4078C4.68526 9.20178 4.61193 8.9761 4.43668 8.84878L0.685459 6.12335C0.293603 5.83865 0.49499 5.21885 0.979352 5.21885H5.61612C5.83273 5.21885 6.02471 5.07937 6.09165 4.87335L7.52449 0.463525Z" fill="#FFC480"/>
<path d="M8.00008 0.0993652C8.19842 0.101728 8.39546 0.217034 8.46947 0.444819L9.90839 4.87335C9.97533 5.07936 10.1673 5.21884 10.3839 5.21884H15.0207C15.505 5.21884 15.7064 5.83865 15.3146 6.12335L11.5634 8.84878C11.3881 8.9761 11.3148 9.20178 11.3817 9.40779L12.8146 13.8176C12.9642 14.2783 12.437 14.6613 12.0451 14.3766L8.29391 11.6512C8.20631 11.5876 8.10311 11.5557 8 11.5557L8.00008 0.0993652Z" fill="#D6D5D5"/>
</svg>
